<?xml version="1.0" encoding="UTF-8"?>
<svg id="Camada_2" data-name="Camada 2" xmlns="http://www.w3.org/2000/svg" viewBox="0 0 473.78 81.08">
  <defs>
    <style>
      .cls-1 {
        fill: #fff;
      }

      .cls-2 {
        fill: #1dcd9f;
      }

      .cls-3 {
        fill: #222;
      }
    </style>
  </defs>
  <g id="Camada_1-2" data-name="Camada 1">
    <polygon class="cls-1" points="129.68 43.21 113.23 17.59 105.84 17.59 105.84 64.15 116.13 64.15 116.13 38.32 126.22 54.12 133.08 54.12 143.17 38.4 143.17 64.15 153.52 64.15 153.52 17.59 146.07 17.59 129.68 43.21"/>
    <polygon class="cls-1" points="175.48 51.56 169.09 32.1 158.21 32.1 170.44 61.95 163.15 77.67 173.51 77.67 179.18 64.28 192.9 32.1 182.01 32.1 175.48 51.56"/>
    <path class="cls-1" d="M225.18,40.44c-1.3-1.08-2.72-1.97-4.25-2.67-1.54-.7-3.09-1.32-4.65-1.85-1.56-.53-2.99-1.05-4.29-1.58-1.3-.53-2.34-1.15-3.13-1.88-.79-.73-1.19-1.68-1.19-2.87,0-1.28.53-2.25,1.58-2.93s2.48-1.02,4.29-1.02,3.42.35,4.85,1.05c1.43.7,2.85,1.78,4.25,3.23l6.73-6.66c-1.76-1.98-3.99-3.54-6.69-4.68s-5.68-1.71-8.94-1.71-6.05.54-8.51,1.62c-2.46,1.08-4.39,2.65-5.77,4.72-1.38,2.07-2.08,4.53-2.08,7.39,0,2.37.4,4.34,1.19,5.9.79,1.56,1.83,2.86,3.13,3.89,1.3,1.03,2.71,1.89,4.25,2.57,1.54.68,3.09,1.29,4.65,1.81,1.56.53,2.99,1.08,4.29,1.65,1.3.57,2.34,1.25,3.13,2.04.79.79,1.19,1.82,1.19,3.1,0,1.41-.6,2.51-1.81,3.3-1.21.79-2.91,1.19-5.11,1.19-2.42,0-4.54-.47-6.36-1.42-1.83-.95-3.49-2.28-4.98-3.99l-6.73,6.66c2.29,2.55,4.8,4.45,7.55,5.71,2.75,1.25,6.03,1.88,9.86,1.88,5.58,0,9.96-1.26,13.12-3.79,3.17-2.53,4.75-6.01,4.75-10.45,0-2.42-.4-4.45-1.19-6.1-.79-1.65-1.84-3.01-3.13-4.09Z"/>
    <path class="cls-1" d="M265.64,39.52c-1.54-2.53-3.62-4.52-6.26-5.97s-5.63-2.17-8.97-2.17-6.33.73-8.97,2.21c-2.64,1.47-4.73,3.46-6.27,5.96-1.54,2.51-2.31,5.35-2.31,8.51s.77,6.03,2.31,8.58c1.54,2.55,3.64,4.56,6.3,6.03,2.66,1.47,5.64,2.21,8.94,2.21s6.33-.74,8.97-2.21c2.64-1.47,4.72-3.48,6.26-6.03,1.54-2.55,2.31-5.41,2.31-8.58s-.77-6.01-2.31-8.54ZM256.77,52.05c-.59,1.17-1.44,2.07-2.54,2.71-1.1.63-2.37.95-3.82.95s-2.66-.32-3.76-.95c-1.1-.64-1.96-1.54-2.57-2.71-.62-1.16-.93-2.47-.93-3.92s.31-2.82.93-3.96c.61-1.14,1.47-2.03,2.57-2.67,1.1-.64,2.35-.96,3.76-.96s2.71.32,3.79.96,1.92,1.52,2.54,2.64c.61,1.12.92,2.43.92,3.92s-.29,2.83-.89,3.99Z"/>
    <path class="cls-1" d="M292.09,50.56c0,1.67-.44,2.98-1.32,3.92-.88.95-2.07,1.42-3.56,1.42-1.05,0-1.96-.22-2.7-.66-.75-.44-1.31-1.06-1.68-1.85-.37-.79-.56-1.74-.56-2.84v-18.47h-10.09v18.6c0,2.77.64,5.22,1.91,7.35,1.27,2.13,3.04,3.8,5.31,5.01,2.26,1.21,4.87,1.81,7.82,1.81s5.54-.61,7.78-1.81c2.24-1.21,4-2.88,5.28-5.01,1.27-2.13,1.91-4.61,1.91-7.42v-18.53h-10.09v18.47Z"/>
    <path class="cls-1" d="M333.87,33.12c-1.83-1.12-3.92-1.68-6.3-1.68s-4.67.52-6.63,1.55c-.87.46-1.64,1.02-2.34,1.65v-2.54h-10.09v32.05h10.09v-18.27c0-1.1.24-2.08.72-2.94.48-.86,1.14-1.52,1.98-1.98.83-.46,1.8-.69,2.9-.69,1.58,0,2.89.52,3.92,1.55,1.03,1.03,1.55,2.39,1.55,4.06v18.27h10.09v-20.51c0-2.2-.53-4.22-1.58-6.07-1.05-1.85-2.5-3.33-4.32-4.45Z"/>
    <path class="cls-1" d="M368.26,17.59v16.57c-.73-.56-1.53-1.05-2.41-1.47-1.78-.83-3.77-1.25-5.97-1.25-3.03,0-5.72.73-8.07,2.18-2.36,1.45-4.2,3.43-5.54,5.93-1.35,2.51-2.02,5.37-2.02,8.58s.67,6.06,2.02,8.57c1.34,2.51,3.18,4.49,5.54,5.94,2.35,1.45,5.04,2.17,8.07,2.17,2.2,0,4.2-.45,6.01-1.35.95-.47,1.8-1.04,2.57-1.69v2.38h9.89V17.59h-10.09ZM367.93,52.08c-.61,1.15-1.45,2.04-2.51,2.68-1.05.63-2.3.95-3.75.95-1.37,0-2.6-.33-3.7-.99-1.1-.66-1.95-1.56-2.57-2.7-.62-1.14-.92-2.44-.92-3.89s.32-2.75.95-3.89c.64-1.15,1.5-2.05,2.58-2.71,1.07-.66,2.31-.99,3.72-.99s2.65.33,3.73.99c1.07.66,1.91,1.55,2.5,2.67.6,1.12.89,2.43.89,3.93s-.3,2.81-.92,3.95Z"/>
    <polygon class="cls-2" points="417.39 55.05 417.39 64.15 386.4 64.15 386.4 17.59 396.75 17.59 396.75 55.05 417.39 55.05"/>
    <rect class="cls-2" x="422.47" y="32.1" width="10.09" height="32.05"/>
    <path class="cls-2" d="M427.55,16.6c-1.58,0-2.89.53-3.92,1.58-1.03,1.06-1.55,2.38-1.55,3.96s.52,2.85,1.55,3.92c1.03,1.08,2.34,1.62,3.92,1.62s2.88-.54,3.89-1.62c1.01-1.08,1.52-2.38,1.52-3.92s-.51-2.9-1.52-3.96c-1.01-1.05-2.31-1.58-3.89-1.58Z"/>
    <path class="cls-2" d="M471.77,39.55c-1.34-2.5-3.19-4.48-5.54-5.93-2.35-1.45-5.05-2.18-8.08-2.18-2.16,0-4.13.42-5.94,1.25-.89.42-1.7.91-2.44,1.49v-17.91h-10.09v47.88h9.96v-2.38c.77.65,1.62,1.22,2.57,1.69,1.81.9,3.78,1.35,5.94,1.35,3.03,0,5.73-.72,8.08-2.17,2.35-1.45,4.2-3.43,5.54-5.94,1.34-2.51,2.01-5.36,2.01-8.57s-.67-6.07-2.01-8.58ZM462.63,52.02c-.61,1.14-1.46,2.04-2.53,2.7-1.08.66-2.32.99-3.73.99s-2.65-.32-3.73-.95c-1.07-.64-1.92-1.53-2.54-2.68-.61-1.14-.92-2.46-.92-3.95s.3-2.82.89-3.96c.59-1.14,1.44-2.03,2.54-2.67,1.1-.64,2.35-.96,3.76-.96s2.65.32,3.73.96c1.07.64,1.92,1.53,2.53,2.67.62,1.14.93,2.46.93,3.96s-.31,2.75-.93,3.89Z"/>
    <rect class="cls-2" width="81.08" height="81.08"/>
    <circle class="cls-3" cx="40.54" cy="40.54" r="32.43"/>
    <circle class="cls-2" cx="40.54" cy="40.54" r="10.98"/>
  </g>
</svg>